<?xml version="1.0" encoding="UTF-8"?>
<svg width="798px" height="250px" viewBox="0 0 798 250" version="1.1" xmlns="http://www.w3.org/2000/svg" xmlns:xlink="http://www.w3.org/1999/xlink">
    <title>zepz-color-white-bg</title>
    <defs>
        <linearGradient x1="100%" y1="24.9126876%" x2="0%" y2="75.0873124%" id="linearGradient-1">
            <stop stop-color="#EE6D06" offset="0%"></stop>
            <stop stop-color="#F6A000" offset="100%"></stop>
        </linearGradient>
        <linearGradient x1="100%" y1="23.0072622%" x2="0%" y2="76.9927378%" id="linearGradient-2">
            <stop stop-color="#6B23E6" offset="0%"></stop>
            <stop stop-color="#9718D0" offset="100%"></stop>
        </linearGradient>
    </defs>
    <g id="zepz-color-white-bg" stroke="none" stroke-width="1" fill="none" fill-rule="evenodd">
        <polygon id="Path-6" fill="#FFFFFF" points="0 0 798 0 717.386011 250 0 250"></polygon>
        <g id="Zepz" transform="translate(139.000000, 69.000000)">
            <g id="Group" transform="translate(106.000000, 0.000000)">
                <polygon id="Path" fill="#3B1280" points="18.6601487 0.370034212 85.0501391 0.370034212 39.011639 78.07464 82.2690221 78.07464 69.2999225 100.490719 -4.72123113e-15 100.490719 46.4829121 22.4354192 6.25912345 22.4354192"></polygon>
                <polygon id="Path" fill="#3B1280" points="272.4915 0 338.88149 0 292.84299 77.7046058 336.100373 77.7046058 323.131274 100.120685 253.831351 100.120685 300.314263 22.065385 260.090475 22.065385"></polygon>
                <polygon id="Path-2" fill="#3A1181" points="166.025858 0.370034212 166.025858 21.7262944 118.70436 21.7262944 118.70436 38.816202 157.104127 38.816202 157.104127 61.0491983 118.70436 61.0491983 118.70436 78.4420956 166.025858 78.4420956 166.025858 100.120685 95.7611108 100.490719 95.7611108 0.370034212"></polygon>
                <path d="M200.775229,100.245749 L200.541747,67.5973856 L218.454095,67.5973856 C226.330447,67.5973856 233.169322,66.2551198 238.970721,63.5705882 C244.77212,60.8860566 249.23962,57.0132898 252.373223,51.9522876 C255.506825,46.8912854 257.073626,40.9721133 257.073626,34.1947712 C257.073626,27.3294118 255.506825,21.3882353 252.373223,16.3712418 C249.23962,11.3542484 244.77212,7.48148148 238.970721,4.75294118 C233.169322,2.02440087 226.330447,0.660130719 218.454095,0.660130719 L179.961602,0.660130719 L179.908256,100.762766 L200.775229,100.245749 Z M216.823331,46.869281 L201.332518,46.869281 L201.332518,20.4640523 L216.823331,20.4640523 C222.53459,20.4640523 226.876712,21.605019 229.849696,23.8869523 C232.82268,26.1688857 234.309172,29.446901 234.309172,33.7209984 C234.309172,37.9226535 232.82268,41.1644477 229.849696,43.446381 C226.876712,45.7283144 222.53459,46.869281 216.823331,46.869281 L216.823331,46.869281 Z" id="P" fill="#3B1280" fill-rule="nonzero"></path>
            </g>
            <g id="Group-2" transform="translate(0.000000, 1.000000)">
                <polygon id="Path-5" fill="url(#linearGradient-1)" points="38.2758589 0 88.7278189 0 52.1517612 62.8495066 0 62.8495066"></polygon>
                <polygon id="Path-3" fill="url(#linearGradient-2)" points="51.8445838 21.0526316 112.614092 21.0526316 66.7994792 99.9113384 5.28654971 99.9113384"></polygon>
                <polygon id="Path-4" fill="#D233B4" points="51.4315721 21.0526316 75.5708151 21.0526316 51.4315721 63.0178351 27.0935673 63.0178351"></polygon>
            </g>
        </g>
    </g>
</svg>